<?xml version="1.0"?>
<svg width="800" height="370" xmlns="http://www.w3.org/2000/svg" xmlns:svg="http://www.w3.org/2000/svg" preserveAspectRatio="xMidYMid meet">
 <metadata>Created by potrace 1.13, written by Peter Selinger 2001-2015</metadata>
 <g>
  <title>Layer 1</title>
  <g id="svg_1" fill="#000000" transform="translate(0,370) scale(0.10000000149011612,-0.10000000149011612) ">
   <path fill="#007fff" id="svg_2" d="m0,1860l0,-1850l1550,0l1549,0l28,38c15,20 105,114 198,207c130,130 201,192 301,262c134,95 213,173 252,250c32,61 58,166 93,373l31,185l-5,385c-7,551 -23,664 -137,990c-34,96 -82,234 -106,305c-45,128 -159,382 -217,480c-16,28 -46,68 -66,90c-20,22 -52,61 -70,87l-34,47l-1683,1l-1684,0l0,-1850zm2085,1476c388,-80 746,-386 889,-759c102,-264 118,-519 51,-784c-85,-335 -324,-626 -640,-778c-210,-102 -313,-121 -604,-113c-169,5 -180,6 -283,41c-416,140 -704,434 -840,858l-33,104l0,245c0,282 7,322 95,508c65,137 128,228 231,337c175,183 396,306 632,351c91,17 401,11 502,-10zm785,-134c102,-50 169,-118 220,-224c43,-89 59,-148 42,-148c-17,0 -124,94 -172,151c-173,205 -210,251 -210,260c0,14 29,4 120,-39zm-1990,9c-33,-62 -177,-240 -262,-324c-55,-54 -101,-97 -103,-95c-8,8 19,107 45,163c52,114 97,157 260,253c47,27 74,29 60,3zm2273,-158c68,-50 133,-140 147,-206c7,-30 10,-117 8,-209l-3,-157l-100,91c-230,209 -278,266 -301,363l-7,30l44,-41c24,-22 80,-69 124,-103c44,-35 101,-86 127,-115l48,-51l-31,115c-46,173 -67,231 -100,272c-49,62 -31,66 44,11zm-2619,-50c-25,-52 -114,-338 -114,-370c0,-3 17,17 39,44c21,27 70,73 107,103c38,29 93,76 121,104c29,27 56,47 59,43c11,-10 -17,-84 -49,-133c-15,-23 -100,-112 -189,-196l-161,-153l5,196c4,177 6,199 27,242c35,73 147,187 183,187c3,0 -9,-30 -28,-67zm2871,-237c18,-34 41,-88 51,-121c24,-82 23,-227 -4,-320c-56,-202 -77,-265 -87,-265c-6,0 -16,20 -23,44c-6,24 -57,112 -113,197c-127,191 -194,329 -160,329c16,0 181,-161 214,-209c17,-25 42,-73 54,-106l24,-60l-5,281c-3,155 -9,290 -13,300c-15,40 27,-8 62,-70zm-3102,-3c-4,-27 -7,-61 -7,-78c1,-16 5,-125 9,-242l8,-212l21,63c12,35 40,88 63,117c57,74 191,205 200,196c13,-14 -31,-119 -95,-225c-36,-59 -88,-147 -118,-196c-29,-48 -56,-101 -59,-117c-4,-16 -11,-29 -15,-29c-5,0 -33,73 -61,163c-79,244 -79,355 2,525c45,94 64,106 52,35zm3254,-528c6,-111 -13,-242 -47,-321c-11,-25 -64,-107 -118,-182l-97,-135l-9,64c-11,82 -35,190 -79,360c-39,149 -57,269 -39,269c12,0 132,-214 162,-289c12,-31 20,-76 21,-114l0,-62l38,115c21,63 52,149 68,190c31,77 47,136 59,225l7,50l14,-35c9,-19 18,-80 20,-135zm-3332,-155c31,-85 67,-193 80,-240l24,-85l0,80c1,44 6,98 11,120c12,47 152,334 163,335c20,1 -8,-178 -63,-403c-26,-104 -40,-185 -40,-227c0,-36 -4,-71 -8,-77c-8,-13 -138,151 -195,246c-69,115 -104,319 -77,453c17,89 22,91 36,18c7,-36 38,-135 69,-220zm2977,-298c24,-163 24,-275 -1,-346c-11,-31 -18,-56 -16,-56c1,0 25,30 52,68c28,37 96,119 152,182c89,101 129,161 156,235c7,19 8,18 15,-6c11,-37 -6,-140 -34,-208c-56,-139 -132,-220 -351,-375c-154,-109 -146,-111 -106,32c11,40 30,155 41,255c30,263 49,361 68,343c3,-4 14,-60 24,-124zm-2641,-205c21,-150 48,-301 59,-336c11,-35 18,-66 15,-69c-7,-7 -154,92 -246,166c-200,161 -259,259 -283,477c-6,57 -3,54 52,-42c18,-32 83,-114 144,-183c61,-69 128,-151 150,-183c41,-60 61,-71 35,-20c-43,86 -46,192 -12,387c29,164 36,148 86,-197zm2495,-33c-3,-9 -13,-55 -22,-102c-43,-236 -64,-295 -140,-387c-20,-25 -35,-47 -33,-49c2,-2 37,20 78,50c40,30 139,91 220,136c120,68 159,96 220,158c78,80 84,75 34,-25c-39,-76 -86,-137 -167,-212c-115,-108 -159,-127 -456,-197c-72,-17 -93,-9 -61,23c28,28 75,123 128,260c47,122 131,293 164,336c23,28 45,34 35,9zm-2383,-62c59,-91 90,-152 143,-289c58,-151 87,-206 136,-259c35,-38 38,-44 20,-44c-33,0 -290,58 -357,80c-115,38 -282,196 -352,334c-19,37 -32,71 -29,74c3,3 36,-24 73,-60c44,-41 105,-85 173,-123c120,-67 273,-157 310,-182c18,-13 15,-6 -12,24c-66,75 -89,135 -133,353c-14,69 -28,133 -31,143c-12,37 15,14 59,-51zm2118,-329c-86,-180 -139,-246 -233,-294c-64,-32 -72,-44 -19,-29c18,5 96,16 174,25c246,28 356,58 430,116c44,36 47,26 9,-27c-46,-64 -117,-119 -210,-166l-87,-43l-145,1c-126,0 -164,5 -290,33c-80,18 -149,36 -154,39c-5,3 23,16 63,29c90,29 136,60 254,171c149,141 218,202 227,202c5,0 -3,-26 -19,-57zm-1742,-113c156,-141 202,-174 274,-200c76,-27 87,-31 87,-40c0,-7 -136,-41 -250,-61c-36,-7 -128,-12 -205,-13l-140,-1l-75,36c-85,41 -165,101 -206,154c-32,43 -25,57 15,27c67,-49 168,-73 419,-97c86,-8 168,-17 182,-20c15,-3 6,5 -22,19c-62,31 -94,57 -133,108c-35,46 -119,193 -130,229l-7,22l28,-21c16,-11 90,-75 163,-142zm1136,-252c28,-6 120,-38 205,-71c138,-53 165,-60 245,-65c64,-3 107,0 150,11c119,32 114,32 76,-2c-19,-16 -71,-49 -117,-72c-72,-36 -94,-43 -162,-47c-134,-8 -231,23 -398,125c-107,65 -174,93 -221,93c-38,0 -27,-15 41,-55c92,-53 256,-179 275,-208c12,-21 12,-28 2,-41c-29,-35 -64,-20 -167,75c-115,107 -235,189 -274,189c-41,0 -132,-64 -268,-189l-122,-112l-34,28c-28,22 -33,30 -23,41c23,28 154,130 244,190c50,34 94,65 97,70c3,5 -20,5 -50,1c-54,-7 -71,-16 -253,-129c-113,-70 -161,-84 -292,-84l-117,-1l-95,48c-131,66 -175,118 -71,82c65,-22 188,-30 253,-16c29,6 128,40 219,75c92,35 178,66 192,68c62,9 619,6 665,-4z"/>
   <path fill="#007fff" id="svg_3" d="m1651,3298c-80,-11 -267,-71 -346,-110c-113,-57 -285,-185 -285,-213c0,-6 25,-39 55,-73l56,-61l88,67c153,115 336,194 502,214l89,11l0,89l0,88l-47,-1c-27,-1 -77,-6 -112,-11z"/>
   <path fill="#007fff" id="svg_4" d="m1867,3303c-4,-3 -7,-44 -7,-89l0,-83l64,6c49,4 71,2 97,-11c19,-10 63,-27 99,-38c92,-29 243,-108 329,-174l74,-56l60,60l60,60l-75,59c-103,82 -217,146 -342,194c-149,56 -338,94 -359,72z"/>
   <path fill="#007fff" id="svg_5" d="m1725,3064c-138,-26 -211,-47 -280,-81c-89,-46 -192,-113 -229,-152l-29,-30l53,-61c28,-33 54,-60 57,-60c2,0 32,23 66,50c105,85 246,145 388,164c42,6 47,10 53,38c8,43 8,136 -1,141c-5,2 -39,-2 -78,-9z"/>
   <path fill="#007fff" id="svg_6" d="m1860,2996c0,-47 5,-77 13,-84c6,-5 46,-15 87,-22c98,-16 184,-49 283,-109c113,-67 121,-71 136,-61c20,12 -67,112 -91,104c-10,-3 -23,5 -35,22c-10,14 -33,43 -50,64c-34,38 -43,75 -20,83c33,13 -140,58 -270,71l-53,5l0,-73z"/>
   <path fill="#007fff" id="svg_7" d="m926,2884c-87,-110 -183,-299 -217,-427c-10,-37 -23,-115 -30,-173c-15,-131 -7,-146 49,-91l38,37l27,-28c35,-35 37,-32 76,123c47,189 102,307 211,453l24,33l-66,66l-66,66l-46,-59z"/>
   <path fill="#007fff" id="svg_8" d="m2635,2892c-74,-68 -74,-60 -5,-163c113,-169 171,-314 192,-482l12,-95l45,-4c25,-2 64,-1 86,2l40,5l-2,60c-5,126 -78,350 -163,498c-46,81 -139,209 -155,213c-6,2 -28,-14 -50,-34z"/>
   <path fill="#007fff" id="svg_9" d="m1675,2821c-90,-25 -173,-62 -244,-110c-87,-59 -90,-65 -54,-108c16,-20 41,-45 55,-56l26,-19l39,30c53,43 176,98 251,112l63,13l-3,76l-3,76l-30,2c-16,1 -61,-6 -100,-16z"/>
   <path fill="#007fff" id="svg_10" d="m1860,2758l0,-75l51,-7c72,-10 172,-50 240,-96l57,-39l41,44c45,49 49,60 25,73c-8,5 -21,20 -27,33c-31,62 -179,128 -304,136l-83,6l0,-75z"/>
   <path fill="#007fff" id="svg_11" d="m1113,2723c-84,-108 -165,-288 -194,-427c-29,-141 -30,-136 44,-136c34,0 67,4 74,8c17,11 38,64 58,147c23,92 64,181 120,261c25,36 45,68 45,72c0,9 -103,112 -112,112c-3,0 -19,-17 -35,-37z"/>
   <path fill="#007fff" id="svg_12" d="m2420,2668c0,-13 23,-61 50,-107c80,-132 118,-237 135,-370l7,-53l46,6c24,3 61,6 80,6l35,0l-6,68c-10,104 -43,218 -92,321c-44,91 -46,93 -65,76c-21,-19 -22,-18 -96,37c-59,44 -94,50 -94,16z"/>
   <path fill="#007fff" id="svg_13" d="m1703,2606c-51,-16 -165,-79 -183,-101c-17,-21 -8,-28 67,-50c42,-12 65,-24 68,-37c8,-23 25,-22 95,2l55,19l0,88l0,88l-30,2c-16,1 -49,-4 -72,-11z"/>
   <path fill="#007fff" id="svg_14" d="m1862,2529c3,-87 5,-94 24,-97c12,-2 35,9 53,24c37,30 61,22 42,-14c-17,-31 -14,-39 20,-51c46,-16 49,-14 49,22c0,40 21,72 63,93l32,17l-24,16c-41,28 -163,72 -213,78l-49,6l3,-94z"/>
   <path fill="#007fff" id="svg_15" d="m2320,2583c-12,-16 -34,-40 -48,-55c-24,-26 -24,-28 -8,-53c10,-14 25,-29 34,-32c9,-4 36,-24 59,-45c24,-21 51,-38 61,-38c28,0 56,-35 49,-61c-10,-36 13,-6 28,37c13,38 12,39 -14,50c-27,11 -81,68 -81,85c0,5 10,9 23,9c21,1 21,1 -5,21c-27,20 -41,58 -16,43c15,-9 2,14 -25,44c-26,28 -29,28 -57,-5z"/>
   <path fill="#007fff" id="svg_16" d="m1259,2539c-63,-93 -128,-259 -101,-259c6,0 19,-16 31,-35c24,-42 38,-44 51,-9c6,14 39,62 74,106c35,43 72,95 82,114l19,34l-56,56l-57,56l-43,-63z"/>
   <path fill="#007fff" id="svg_17" d="m1817,2337c-5,-24 -22,-52 -46,-76c-32,-32 -37,-43 -33,-69c11,-81 -29,-152 -88,-152c-38,0 -38,-12 0,-60c39,-49 82,-76 145,-90c71,-16 93,-8 101,38c9,49 19,60 66,72c67,19 61,53 -16,92c-23,11 -43,22 -45,24c-2,2 8,17 23,34c29,36 33,58 11,67c-9,3 -22,18 -31,34c-8,16 -23,29 -33,29c-25,0 -39,19 -43,60l-3,35l-8,-38z"/>
   <path fill="#007fff" id="svg_18" d="m1257,2073c-5,-27 7,-217 19,-298c9,-61 24,-105 37,-105c15,0 107,79 107,91c0,6 -14,30 -31,55c-41,60 -74,137 -88,206c-14,68 -36,93 -44,51z"/>
   <path fill="#007fff" id="svg_19" d="m1346,2072c24,-108 87,-244 116,-250c9,-2 43,22 79,56l62,58l-38,72c-21,40 -46,74 -57,77c-10,4 -53,8 -94,10l-74,4l6,-27z"/>
   <path fill="#007fff" id="svg_20" d="m2486,2092c-9,-2 -15,-9 -13,-15c2,-7 12,-11 22,-9c50,9 26,-64 -32,-98c-49,-29 -74,-76 -67,-126c8,-57 -11,-118 -46,-148c-33,-27 -37,-36 -16,-36c40,0 114,97 160,210c21,52 56,187 56,217c0,8 -33,11 -64,5z"/>
   <path fill="#007fff" id="svg_21" d="m2600,2036c-19,-99 -40,-165 -85,-266c-23,-52 -50,-119 -60,-149l-18,-54l27,-19c14,-11 26,-28 26,-38c0,-10 5,-22 10,-25c21,-13 38,16 44,77c4,34 12,70 17,80c12,22 35,23 47,2c15,-26 31,-8 69,74c43,96 78,218 88,305l7,67l-34,2c-18,1 -54,2 -80,3l-46,2l-12,-61z"/>
   <path fill="#007fff" id="svg_22" d="m2826,2025c-14,-159 -92,-350 -208,-510l-65,-90l63,-65l63,-65l31,30c79,75 188,269 241,425c28,84 59,249 59,315l0,31l-89,1l-88,1l-7,-73z"/>
   <path fill="#007fff" id="svg_23" d="m678,2084c-12,-18 9,-158 38,-259c50,-177 224,-485 273,-485c14,0 68,47 91,80l21,29l-59,88c-67,100 -111,182 -147,279c-34,91 -59,129 -101,153c-20,12 -38,30 -41,41c-8,30 -20,24 -34,-15c-7,-19 -16,-35 -21,-35c-4,0 -8,30 -10,68c-2,37 -6,62 -10,56z"/>
   <path fill="#007fff" id="svg_24" d="m1561,1836l-64,-64l29,-26c44,-39 162,-96 200,-96c40,0 84,19 84,36c0,15 -27,44 -41,44c-17,0 -9,22 16,42c27,21 34,48 12,48c-7,0 -48,18 -92,40c-44,22 -80,40 -80,40c0,0 -29,-29 -64,-64z"/>
   <path fill="#007fff" id="svg_25" d="m1401,1669c-50,-50 -51,-52 -34,-72c41,-46 203,-137 244,-137c5,0 9,10 9,23c0,35 21,56 70,71c43,13 67,36 36,36c-32,0 -130,44 -193,86c-36,24 -69,44 -74,44c-4,0 -30,-23 -58,-51z"/>
   <path fill="#007fff" id="svg_26" d="m1242,1507c-23,-23 -42,-47 -42,-53c0,-16 60,-69 128,-112c123,-79 353,-157 440,-150l37,3l0,80l0,80l-58,7c-108,14 -203,49 -352,132c-55,31 -102,56 -105,56c-3,0 -25,-19 -48,-43z"/>
   <path fill="#007fff" id="svg_27" d="m1082,1344l-56,-57l34,-29c198,-169 446,-277 693,-302l58,-6l-3,87l-3,87l-85,12c-175,26 -342,95 -488,203c-45,34 -85,61 -88,61c-3,0 -31,-25 -62,-56z"/>
   <path fill="#007fff" id="svg_28" d="m2453,1333c-93,-116 -169,-163 -264,-163c-31,0 -101,-9 -154,-20c-53,-11 -115,-20 -136,-20l-40,0l3,-87l3,-88l37,-3c66,-6 266,37 373,79c108,42 255,128 327,190l43,37l-60,61c-33,34 -67,61 -77,61c-9,0 -34,-21 -55,-47z"/>
   <path fill="#007fff" id="svg_29" d="m1878,1350c-15,-9 -18,-25 -18,-85l0,-75l33,0c32,0 134,16 170,26c17,5 17,7 2,18c-13,9 -14,17 -6,38c9,25 7,28 -37,54c-52,29 -118,40 -144,24z"/>
   <path fill="#007fff" id="svg_30" d="m3480,3700c0,-6 6,-13 14,-16c8,-3 46,-47 85,-97c39,-51 96,-117 127,-147c31,-30 74,-78 94,-105c20,-28 45,-57 54,-64c10,-8 32,-35 49,-60c17,-25 69,-90 116,-144c121,-138 223,-261 278,-336c27,-36 69,-87 94,-115c26,-28 53,-64 62,-81c9,-16 43,-61 77,-100c34,-38 67,-79 73,-91c24,-42 77,-120 111,-165c29,-38 126,-214 254,-462c29,-57 42,-64 81,-47c25,10 238,219 281,275c15,19 23,20 140,13c143,-8 318,-34 337,-50c25,-21 14,-55 -31,-95c-25,-22 -75,-77 -112,-124c-63,-80 -107,-132 -159,-190c-13,-14 -56,-79 -96,-145c-85,-140 -180,-265 -249,-327c-86,-78 -235,-129 -569,-196c-250,-51 -418,-111 -556,-199c-22,-15 -58,-36 -80,-47c-23,-12 -88,-57 -145,-102c-58,-44 -121,-88 -140,-98c-19,-9 -60,-38 -90,-64c-30,-26 -79,-62 -107,-81c-29,-18 -53,-37 -53,-41c0,-5 -26,-27 -57,-51c-32,-23 -81,-64 -110,-90l-52,-48l66,0c65,0 67,1 127,53c34,29 80,65 104,81c23,16 42,32 42,36c0,10 146,112 207,145c29,15 78,50 110,77c32,28 74,57 93,65c19,9 58,30 85,48c28,18 100,57 160,87c61,30 119,59 130,65c56,30 395,113 565,138c25,4 77,20 117,35c66,27 90,40 181,102c63,44 265,301 292,374c15,39 116,181 166,234c75,79 230,264 257,307c43,68 44,88 6,107c-18,9 -70,19 -116,23c-46,3 -86,10 -89,15c-3,4 -33,8 -67,8c-34,0 -77,4 -96,10c-49,14 -175,24 -205,16c-15,-4 -81,-61 -150,-131c-70,-70 -132,-125 -143,-125c-12,0 -25,18 -42,58c-36,87 -66,143 -151,286c-181,304 -458,650 -1053,1316c-230,258 -243,270 -282,270c-19,0 -35,-5 -35,-10z"/>
  </g>
 </g>
</svg>