<?xml version="1.0"?>
<svg width="501" height="272" xmlns="http://www.w3.org/2000/svg" xmlns:svg="http://www.w3.org/2000/svg" preserveAspectRatio="xMidYMid meet">
 <metadata>Created by potrace 1.13, written by Peter Selinger 2001-2015</metadata>
 <g>
  <title>Layer 1</title>
  <g id="svg_1" fill="#000000" transform="translate(0,272) scale(0.10000000149011612,-0.10000000149011612) ">
   <path fill="#007fff" id="svg_2" d="m0,1365l0,-1355l1175,0l1175,0l-15,24c-22,33 -16,42 104,159c56,54 101,101 101,106c0,4 23,18 50,31c28,13 50,27 50,31c0,4 32,28 70,54c39,26 70,51 70,56c0,5 16,25 35,44c40,41 67,121 89,265c8,52 19,118 25,145c15,75 13,448 -3,630c-19,209 -31,260 -109,475c-48,131 -54,147 -72,207c-8,29 -49,123 -91,208c-57,120 -81,158 -99,165c-14,5 -25,15 -25,21c0,7 -7,20 -16,30c-9,10 -13,23 -9,28c11,18 61,12 80,-9c10,-11 24,-20 31,-20c16,0 77,-75 93,-115c6,-16 40,-61 76,-99c35,-37 81,-93 102,-125c20,-31 67,-87 104,-126c62,-66 93,-107 184,-248c21,-33 59,-82 85,-110c25,-29 66,-79 90,-112c24,-33 70,-88 102,-123c32,-34 58,-70 58,-80c1,-9 19,-51 40,-92c22,-41 59,-113 82,-160l43,-85l128,128c71,70 137,127 146,127c72,0 280,-25 298,-36c37,-23 29,-46 -27,-84c-12,-8 -34,-33 -50,-55c-15,-22 -45,-59 -66,-82c-99,-106 -119,-132 -146,-192c-16,-35 -43,-81 -61,-102c-18,-20 -47,-57 -65,-82c-18,-24 -51,-57 -73,-72c-52,-37 -210,-89 -329,-109c-174,-30 -239,-47 -353,-96c-107,-47 -187,-101 -187,-127c0,-7 -4,-13 -10,-13c-5,0 -25,-11 -45,-24c-20,-14 -83,-48 -141,-77c-58,-29 -110,-61 -116,-72c-16,-31 -29,-45 -152,-163c-6,-6 -25,-18 -41,-27l-30,-16l33,-1c21,0 41,8 56,23c24,24 131,97 143,97c4,0 28,18 54,39c25,22 90,62 144,90c54,28 108,60 121,72c12,11 44,31 71,44c26,13 61,35 77,49c16,14 36,26 45,26c9,0 31,9 49,20c18,11 38,20 46,20c7,0 27,7 44,15c38,19 118,42 197,56c33,6 74,14 91,20c17,5 45,9 63,9c37,0 169,58 190,83c7,9 19,17 25,17c13,1 101,98 140,155c14,22 38,55 51,74c14,19 30,51 35,71c16,60 88,157 215,290c67,69 129,137 138,153l17,27l-97,1c-54,0 -125,5 -158,10c-122,18 -202,22 -241,9c-28,-8 -62,-36 -120,-97c-83,-88 -104,-96 -104,-43c0,16 -5,32 -10,35c-6,4 -26,37 -46,73c-19,37 -48,87 -64,112c-16,25 -33,52 -36,60c-4,8 -23,37 -43,64c-20,28 -43,60 -51,72c-40,59 -233,304 -270,344c-24,25 -89,99 -145,165c-56,66 -136,156 -176,200c-41,45 -101,111 -134,149c-104,117 49,106 -1424,106l-1281,0l0,-1355zm1603,1061c154,-52 283,-132 388,-243c144,-151 227,-333 250,-545c41,-373 -161,-737 -496,-893c-151,-71 -196,-80 -390,-79c-159,0 -176,2 -255,28c-306,101 -522,324 -617,633c-24,80 -26,103 -27,248c0,133 4,173 22,238c95,342 397,608 734,645c114,13 304,-3 391,-32zm504,-81c55,-27 83,-48 112,-85c37,-47 81,-142 81,-176c0,-24 -91,57 -158,139c-31,39 -74,90 -96,114c-21,24 -33,43 -26,43c7,0 46,-16 87,-35zm-1514,-62c-73,-99 -111,-141 -173,-196l-43,-38l6,28c14,70 51,145 91,186c35,36 151,106 178,107c4,0 -23,-39 -59,-87zm1747,-69c21,-20 49,-56 62,-82c21,-42 23,-61 23,-179c0,-73 0,-133 -1,-133c0,0 -27,26 -60,58c-33,31 -88,81 -123,111c-43,37 -71,71 -87,105c-28,59 -32,93 -7,58c9,-13 51,-49 92,-80c42,-31 85,-67 96,-81c11,-14 26,-32 33,-40c16,-19 17,-25 -22,119c-33,119 -43,144 -67,166c-10,9 -19,21 -19,26c0,13 37,-9 80,-48zm-1945,3c-14,-19 -32,-65 -41,-103c-9,-38 -24,-96 -35,-130c-25,-79 -24,-84 7,-38c30,44 47,60 120,114c28,21 63,52 77,70c33,38 35,20 6,-46c-13,-32 -43,-69 -91,-114c-40,-36 -96,-89 -125,-118l-53,-54l0,129c0,70 4,143 10,162c11,40 64,111 105,140c43,30 50,26 20,-12zm2106,-200c58,-111 61,-233 10,-377c-17,-47 -31,-95 -31,-107c0,-13 -4,-23 -10,-23c-5,0 -10,7 -10,15c0,26 -39,95 -102,182c-55,77 -97,155 -113,213c-6,20 9,10 67,-45c90,-85 113,-116 135,-183l18,-51l-1,207c0,114 -4,216 -8,227l-8,20l17,-20c9,-11 25,-37 36,-58zm-2283,6c-7,-27 -7,-71 2,-155c7,-65 10,-144 7,-178c-4,-37 -3,-60 3,-60c6,0 10,12 10,28c0,15 13,50 29,77c31,52 171,198 171,178c0,-35 -49,-133 -115,-232c-41,-62 -80,-130 -86,-151l-12,-39l-44,132c-41,122 -45,138 -41,212c3,64 11,94 38,153c36,78 55,95 38,35zm2391,-408c1,-76 -19,-177 -45,-228c-9,-18 -47,-72 -83,-121l-66,-90l-6,70c-4,38 -19,107 -33,154c-31,97 -56,217 -56,263c0,30 3,27 36,-33c97,-176 99,-181 99,-254l0,-69l12,49c16,60 43,138 78,223c15,36 30,92 33,125l6,61l12,-40c7,-22 13,-71 13,-110zm-2445,-93c24,-59 49,-134 56,-167c17,-84 27,-97 22,-27c-5,77 15,148 73,248c25,44 45,85 45,92c0,6 4,12 8,12c14,0 -15,-177 -48,-295c-21,-73 -32,-132 -32,-175c1,-54 -1,-62 -11,-46c-7,10 -34,46 -60,80c-72,91 -98,140 -119,225c-21,89 -22,140 -6,213l12,53l8,-53c4,-29 28,-101 52,-160zm2174,-154c0,-18 7,-71 15,-118c17,-92 11,-164 -17,-219c-29,-55 -17,-47 35,24c27,39 74,95 103,125c68,70 113,133 121,171c12,52 21,22 15,-43c-9,-79 -54,-172 -118,-240c-26,-28 -91,-79 -144,-114c-53,-35 -100,-69 -103,-74c-3,-6 -10,-10 -15,-10c-5,0 0,19 10,43c21,46 33,119 50,292c12,119 28,195 40,195c4,0 8,-15 8,-32zm-1944,-105c8,-54 21,-151 30,-215c8,-64 22,-131 31,-148c9,-18 15,-34 12,-36c-10,-10 -198,126 -263,192c-80,80 -111,142 -120,248l-6,61l25,-51c14,-29 63,-92 110,-142c48,-49 100,-113 117,-141c38,-61 56,-68 29,-11c-11,22 -22,61 -26,86c-7,56 27,292 39,269c5,-7 15,-58 22,-112zm1838,-155c-6,-18 -13,-58 -17,-88c-11,-101 -44,-187 -92,-240c-54,-60 -40,-65 25,-11c26,22 99,67 162,101c124,67 147,84 193,145c23,31 28,35 22,15c-30,-104 -150,-241 -255,-291c-30,-15 -93,-34 -140,-44c-47,-9 -97,-20 -112,-25c-27,-9 -39,2 -18,15c21,13 62,97 104,212c53,145 165,330 128,211zm-1724,-45c31,-48 65,-119 87,-183c36,-106 83,-193 114,-209c25,-14 8,-22 -25,-11c-16,5 -69,16 -118,25c-49,9 -114,28 -145,42c-75,35 -189,150 -224,225c-15,31 -27,60 -27,63c0,4 20,-15 44,-42c33,-37 77,-66 172,-117c71,-37 144,-80 164,-95c59,-46 67,-47 26,-2c-52,59 -71,106 -96,239c-11,62 -23,119 -27,127c-12,33 7,11 55,-62zm1516,-260c-52,-103 -89,-144 -156,-173c-57,-25 -58,-36 -2,-21c22,6 91,15 154,21c138,13 237,40 281,78l33,27l-20,-34c-27,-47 -88,-95 -170,-133c-62,-29 -77,-32 -154,-31c-53,1 -131,13 -210,31l-125,29l45,13c72,19 100,38 190,124c91,88 168,156 174,156c2,0 -15,-39 -40,-87zm-1250,-46c120,-111 138,-123 213,-147c32,-10 51,-20 43,-23c-105,-32 -227,-52 -325,-52c-99,0 -115,3 -165,27c-64,32 -120,76 -152,120c-22,31 -16,31 32,-4c36,-25 127,-45 265,-57c66,-6 138,-13 160,-16l40,-6l-50,21c-65,26 -102,65 -159,169c-25,46 -46,85 -46,88c0,9 48,-30 144,-120zm581,-177c11,0 60,3 108,6c105,7 142,-1 297,-63c100,-41 125,-47 190,-47c50,-1 89,5 119,17c24,10 45,16 48,14c7,-8 -102,-76 -146,-92c-93,-32 -225,-12 -324,50c-23,15 -67,42 -97,61c-53,33 -130,48 -130,24c0,-5 4,-10 9,-10c14,0 180,-114 219,-150c38,-36 40,-47 8,-62c-23,-10 -30,-5 -93,55c-72,70 -129,114 -181,141c-30,15 -34,15 -64,0c-49,-25 -105,-69 -183,-145l-70,-68l-25,21l-25,20l50,45c28,24 82,65 122,91c119,78 115,73 58,69c-42,-3 -65,-13 -129,-56c-114,-77 -177,-103 -260,-109c-81,-5 -149,16 -230,69c-55,37 -53,48 4,25c25,-10 70,-16 116,-16c69,0 90,5 213,54c165,66 163,65 281,60c52,-3 104,-4 115,-4z"/>
   <path fill="#007fff" id="svg_3" d="m1198,2420c-74,-13 -208,-59 -268,-92c-69,-39 -190,-130 -190,-143c0,-5 21,-31 46,-56l47,-48l60,49c108,88 289,160 399,160l38,0l0,70l0,70l-42,-1c-24,-1 -64,-5 -90,-9z"/>
   <path fill="#007fff" id="svg_4" d="m1365,2418c-4,-9 -5,-40 -3,-69l3,-54l54,3c35,2 59,-2 70,-11c9,-8 33,-17 53,-21c55,-10 208,-89 260,-135l45,-40l46,47l47,48l-71,56c-122,96 -292,166 -446,185c-42,4 -54,3 -58,-9z"/>
   <path fill="#007fff" id="svg_5" d="m1240,2245c-113,-20 -155,-36 -245,-89c-65,-39 -125,-87 -125,-100c0,-6 19,-29 41,-52l42,-43l46,39c76,63 178,107 275,119l51,6l3,68c2,37 -1,67 -5,66c-4,-1 -42,-7 -83,-14z"/>
   <path fill="#007fff" id="svg_6" d="m1360,2191c0,-67 -5,-63 87,-75c66,-9 148,-43 220,-92c51,-34 69,-42 79,-33c12,10 10,15 -9,33c-13,11 -27,29 -30,39c-5,13 -13,16 -26,12c-15,-4 -24,1 -34,22c-8,15 -24,37 -36,47c-22,20 -28,46 -11,46c6,0 10,4 10,9c0,13 -116,43 -187,49l-63,4l0,-61z"/>
   <path fill="#007fff" id="svg_7" d="m666,2104c-55,-70 -128,-215 -150,-299c-9,-33 -19,-97 -23,-142c-7,-93 0,-102 43,-56l26,28l17,-22c10,-11 23,-18 29,-14c6,3 20,50 31,104c22,110 80,239 136,307c19,23 35,45 35,49c0,4 -22,28 -49,55l-49,48l-46,-58z"/>
   <path fill="#007fff" id="svg_8" d="m1915,2110l-39,-40l32,-42c91,-122 148,-257 160,-385l7,-68l44,-3c25,-2 55,-1 69,3c23,6 24,8 18,63c-11,93 -44,201 -91,298c-44,90 -130,213 -150,214c-6,0 -28,-18 -50,-40z"/>
   <path fill="#007fff" id="svg_9" d="m1280,2083c-61,-7 -157,-43 -217,-82c-89,-58 -90,-60 -39,-110l44,-43l24,22c34,33 143,82 194,88l44,5l0,63c0,35 -3,63 -7,62c-5,0 -24,-3 -43,-5z"/>
   <path fill="#007fff" id="svg_10" d="m1362,2023l3,-58l46,-6c55,-8 130,-40 176,-75l32,-24l35,37c34,37 35,38 16,52c-11,7 -20,20 -20,27c0,20 -83,71 -146,89c-28,8 -73,15 -99,15l-46,0l3,-57z"/>
   <path fill="#007fff" id="svg_11" d="m797,1976c-73,-101 -136,-271 -137,-363l0,-33l53,0c60,0 65,7 93,120c19,75 43,126 90,193l34,48l-42,44c-24,25 -45,45 -48,45c-3,0 -22,-25 -43,-54z"/>
   <path fill="#007fff" id="svg_12" d="m1771,1966c-8,-10 0,-30 38,-87c51,-78 86,-170 97,-257l7,-53l61,3l61,3l-3,50c-5,75 -29,162 -69,244c-28,60 -37,71 -45,58c-13,-24 -19,-22 -69,18c-48,38 -61,42 -78,21z"/>
   <path fill="#007fff" id="svg_13" d="m1267,1919c-61,-14 -167,-75 -167,-95c0,-5 24,-15 53,-22c28,-7 53,-16 55,-20c11,-31 20,-35 52,-18c18,9 41,16 52,16c16,0 18,9 18,75c0,81 2,79 -63,64z"/>
   <path fill="#007fff" id="svg_14" d="m1366,1923c-3,-4 -6,-37 -6,-75c0,-65 1,-68 23,-68c13,0 32,9 42,20c23,26 40,15 22,-14c-14,-21 -13,-23 15,-34c35,-13 52,-7 44,14c-9,23 14,62 40,68c13,4 24,11 24,17c0,24 -186,90 -204,72z"/>
   <path fill="#007fff" id="svg_15" d="m1683,1877l-42,-42l21,-25c11,-14 24,-24 29,-23c4,2 19,-11 33,-27c15,-19 34,-30 50,-30c25,0 44,-30 31,-50c-3,-5 -3,-10 2,-10c4,0 14,12 21,27c13,29 17,61 5,49c-4,-3 -22,8 -40,26c-31,30 -42,49 -25,47c27,-5 34,3 13,14c-14,6 -26,18 -29,26c-3,8 0,11 7,7c20,-13 12,10 -12,32l-23,22l-41,-43z"/>
   <path fill="#007fff" id="svg_16" d="m923,1868c-52,-74 -98,-198 -74,-198c7,0 16,-11 21,-25c11,-29 40,-34 40,-7c0,10 14,31 31,48c28,26 99,127 99,140c0,6 -77,84 -83,84c-2,0 -17,-19 -34,-42z"/>
   <path fill="#007fff" id="svg_17" d="m1330,1716c0,-24 -41,-76 -60,-76c-7,0 -8,-6 -2,-17c25,-54 -16,-134 -63,-125c-33,6 -31,-6 6,-51c35,-43 85,-67 139,-67c36,0 38,2 44,39c5,33 10,39 37,45c50,10 61,24 38,47c-10,10 -34,25 -51,32c-33,13 -33,14 -10,26c22,12 32,61 12,61c-6,0 -16,11 -22,25c-6,14 -17,24 -24,21c-18,-7 -37,20 -31,44c3,11 1,20 -4,20c-5,0 -9,-11 -9,-24z"/>
   <path fill="#007fff" id="svg_18" d="m494,1476c3,-35 10,-77 15,-93c5,-15 14,-48 22,-73c32,-115 160,-330 196,-330c5,0 27,18 48,40c29,30 37,44 30,54c-59,81 -78,111 -105,164c-17,33 -37,83 -46,109c-15,51 -54,103 -77,103c-7,0 -18,12 -24,28l-10,27l-16,-35l-16,-35l-2,30c-2,17 -2,40 -1,53c0,12 -4,22 -10,22c-7,0 -9,-21 -4,-64z"/>
   <path fill="#007fff" id="svg_19" d="m918,1523c-5,-30 11,-226 22,-265c6,-21 15,-38 21,-38c5,0 28,16 49,36l39,37l-28,41c-37,54 -58,104 -66,161c-7,45 -30,63 -37,28z"/>
   <path fill="#007fff" id="svg_20" d="m986,1513c19,-87 65,-183 87,-183c6,0 32,20 58,46l46,45l-23,47c-35,70 -38,72 -110,72l-64,0l6,-27z"/>
   <path fill="#007fff" id="svg_21" d="m1807,1524c3,-9 13,-14 24,-11c11,3 19,0 19,-7c0,-18 -30,-56 -44,-56c-7,0 -23,-14 -35,-31c-17,-23 -22,-39 -17,-61c10,-49 -11,-107 -41,-119c-17,-6 -23,-13 -17,-19c18,-18 62,14 95,69c37,61 67,141 76,206l6,45l-36,0c-29,0 -35,-3 -30,-16z"/>
   <path fill="#007fff" id="svg_22" d="m1897,1460c-8,-44 -31,-113 -51,-153c-20,-39 -42,-93 -49,-118c-13,-43 -13,-46 7,-55c12,-5 21,-17 21,-26c0,-25 13,-32 30,-18c9,7 15,25 14,39c-6,67 30,122 45,69c5,-21 8,-19 32,22c33,58 71,167 79,227c3,27 8,58 11,71c4,21 1,22 -59,22l-64,0l-16,-80z"/>
   <path fill="#007fff" id="svg_23" d="m2070,1497c0,-102 -64,-268 -146,-376l-55,-74l49,-50l50,-50l26,29c115,129 195,313 212,492l7,72l-72,0l-71,0l0,-43z"/>
   <path fill="#007fff" id="svg_24" d="m1144,1348l-49,-49l35,-29c19,-16 59,-39 89,-50c46,-18 57,-19 82,-8c16,7 29,16 29,20c0,18 -14,38 -26,38c-20,0 -17,13 6,28c23,14 27,42 6,42c-8,0 -38,13 -68,28l-54,29l-50,-49z"/>
   <path fill="#007fff" id="svg_25" d="m1028,1231c-21,-20 -38,-41 -38,-47c0,-13 69,-63 127,-93c42,-21 75,-27 71,-13c-6,21 16,53 40,58c45,10 52,13 52,24c0,5 -7,10 -16,10c-26,0 -117,42 -155,72c-20,15 -38,28 -40,27c-2,0 -21,-17 -41,-38z"/>
   <path fill="#007fff" id="svg_26" d="m902,1103c-31,-35 -31,-37 -15,-55c57,-63 226,-147 337,-167c108,-20 106,-21 106,54c0,65 0,65 -28,65c-53,0 -174,38 -230,73c-68,41 -118,67 -129,66c-4,0 -23,-16 -41,-36z"/>
   <path fill="#007fff" id="svg_27" d="m791,988l-41,-43l32,-28c133,-115 323,-201 475,-214l73,-6l0,65l0,66l-56,7c-137,17 -272,72 -367,149c-31,25 -61,46 -66,46c-5,0 -28,-19 -50,-42z"/>
   <path fill="#007fff" id="svg_28" d="m1815,1002c-11,-9 -31,-33 -44,-53c-31,-46 -118,-94 -154,-85c-14,3 -64,-3 -112,-14c-47,-11 -99,-20 -115,-20l-30,0l0,-64c0,-36 4,-67 8,-70c14,-8 165,14 237,35c38,12 101,37 139,56c72,36 195,122 196,136c0,9 -89,97 -98,97c-4,-1 -16,-8 -27,-18z"/>
   <path fill="#007fff" id="svg_29" d="m1367,993c-4,-3 -7,-33 -7,-66l0,-59l58,6c31,3 71,10 87,15c24,7 27,10 13,16c-14,5 -15,11 -8,25c14,26 14,26 -20,40c-16,7 -30,16 -30,21c0,10 -83,12 -93,2z"/>
  </g>
 </g>
</svg>