<?xml version="1.0" standalone="no"?>
<!DOCTYPE svg PUBLIC "-//W3C//DTD SVG 20010904//EN"
 "http://www.w3.org/TR/2001/REC-SVG-20010904/DTD/svg10.dtd">
<svg version="1.0" xmlns="http://www.w3.org/2000/svg"
 width="501.000000pt" height="272.000000pt" viewBox="0 0 501.000000 272.000000"
 preserveAspectRatio="xMidYMid meet">
<metadata>
Created by potrace 1.13, written by Peter Selinger 2001-2015
</metadata>
<g transform="translate(0.000000,272.000000) scale(0.100000,-0.100000)"
fill="#000000" stroke="none">
<path d="M0 1365 l0 -1355 1175 0 1175 0 -15 24 c-22 33 -16 42 104 159 56 54
101 101 101 106 0 4 23 18 50 31 28 13 50 27 50 31 0 4 32 28 70 54 39 26 70
51 70 56 0 5 16 25 35 44 40 41 67 121 89 265 8 52 19 118 25 145 15 75 13
448 -3 630 -19 209 -31 260 -109 475 -48 131 -54 147 -72 207 -8 29 -49 123
-91 208 -57 120 -81 158 -99 165 -14 5 -25 15 -25 21 0 7 -7 20 -16 30 -9 10
-13 23 -9 28 11 18 61 12 80 -9 10 -11 24 -20 31 -20 16 0 77 -75 93 -115 6
-16 40 -61 76 -99 35 -37 81 -93 102 -125 20 -31 67 -87 104 -126 62 -66 93
-107 184 -248 21 -33 59 -82 85 -110 25 -29 66 -79 90 -112 24 -33 70 -88 102
-123 32 -34 58 -70 58 -80 1 -9 19 -51 40 -92 22 -41 59 -113 82 -160 l43 -85
128 128 c71 70 137 127 146 127 72 0 280 -25 298 -36 37 -23 29 -46 -27 -84
-12 -8 -34 -33 -50 -55 -15 -22 -45 -59 -66 -82 -99 -106 -119 -132 -146 -192
-16 -35 -43 -81 -61 -102 -18 -20 -47 -57 -65 -82 -18 -24 -51 -57 -73 -72
-52 -37 -210 -89 -329 -109 -174 -30 -239 -47 -353 -96 -107 -47 -187 -101
-187 -127 0 -7 -4 -13 -10 -13 -5 0 -25 -11 -45 -24 -20 -14 -83 -48 -141 -77
-58 -29 -110 -61 -116 -72 -16 -31 -29 -45 -152 -163 -6 -6 -25 -18 -41 -27
l-30 -16 33 -1 c21 0 41 8 56 23 24 24 131 97 143 97 4 0 28 18 54 39 25 22
90 62 144 90 54 28 108 60 121 72 12 11 44 31 71 44 26 13 61 35 77 49 16 14
36 26 45 26 9 0 31 9 49 20 18 11 38 20 46 20 7 0 27 7 44 15 38 19 118 42
197 56 33 6 74 14 91 20 17 5 45 9 63 9 37 0 169 58 190 83 7 9 19 17 25 17
13 1 101 98 140 155 14 22 38 55 51 74 14 19 30 51 35 71 16 60 88 157 215
290 67 69 129 137 138 153 l17 27 -97 1 c-54 0 -125 5 -158 10 -122 18 -202
22 -241 9 -28 -8 -62 -36 -120 -97 -83 -88 -104 -96 -104 -43 0 16 -5 32 -10
35 -6 4 -26 37 -46 73 -19 37 -48 87 -64 112 -16 25 -33 52 -36 60 -4 8 -23
37 -43 64 -20 28 -43 60 -51 72 -40 59 -233 304 -270 344 -24 25 -89 99 -145
165 -56 66 -136 156 -176 200 -41 45 -101 111 -134 149 -104 117 49 106 -1424
106 l-1281 0 0 -1355z m1603 1061 c154 -52 283 -132 388 -243 144 -151 227
-333 250 -545 41 -373 -161 -737 -496 -893 -151 -71 -196 -80 -390 -79 -159 0
-176 2 -255 28 -306 101 -522 324 -617 633 -24 80 -26 103 -27 248 0 133 4
173 22 238 95 342 397 608 734 645 114 13 304 -3 391 -32z m504 -81 c55 -27
83 -48 112 -85 37 -47 81 -142 81 -176 0 -24 -91 57 -158 139 -31 39 -74 90
-96 114 -21 24 -33 43 -26 43 7 0 46 -16 87 -35z m-1514 -62 c-73 -99 -111
-141 -173 -196 l-43 -38 6 28 c14 70 51 145 91 186 35 36 151 106 178 107 4 0
-23 -39 -59 -87z m1747 -69 c21 -20 49 -56 62 -82 21 -42 23 -61 23 -179 0
-73 0 -133 -1 -133 0 0 -27 26 -60 58 -33 31 -88 81 -123 111 -43 37 -71 71
-87 105 -28 59 -32 93 -7 58 9 -13 51 -49 92 -80 42 -31 85 -67 96 -81 11 -14
26 -32 33 -40 16 -19 17 -25 -22 119 -33 119 -43 144 -67 166 -10 9 -19 21
-19 26 0 13 37 -9 80 -48z m-1945 3 c-14 -19 -32 -65 -41 -103 -9 -38 -24 -96
-35 -130 -25 -79 -24 -84 7 -38 30 44 47 60 120 114 28 21 63 52 77 70 33 38
35 20 6 -46 -13 -32 -43 -69 -91 -114 -40 -36 -96 -89 -125 -118 l-53 -54 0
129 c0 70 4 143 10 162 11 40 64 111 105 140 43 30 50 26 20 -12z m2106 -200
c58 -111 61 -233 10 -377 -17 -47 -31 -95 -31 -107 0 -13 -4 -23 -10 -23 -5 0
-10 7 -10 15 0 26 -39 95 -102 182 -55 77 -97 155 -113 213 -6 20 9 10 67 -45
90 -85 113 -116 135 -183 l18 -51 -1 207 c0 114 -4 216 -8 227 l-8 20 17 -20
c9 -11 25 -37 36 -58z m-2283 6 c-7 -27 -7 -71 2 -155 7 -65 10 -144 7 -178
-4 -37 -3 -60 3 -60 6 0 10 12 10 28 0 15 13 50 29 77 31 52 171 198 171 178
0 -35 -49 -133 -115 -232 -41 -62 -80 -130 -86 -151 l-12 -39 -44 132 c-41
122 -45 138 -41 212 3 64 11 94 38 153 36 78 55 95 38 35z m2391 -408 c1 -76
-19 -177 -45 -228 -9 -18 -47 -72 -83 -121 l-66 -90 -6 70 c-4 38 -19 107 -33
154 -31 97 -56 217 -56 263 0 30 3 27 36 -33 97 -176 99 -181 99 -254 l0 -69
12 49 c16 60 43 138 78 223 15 36 30 92 33 125 l6 61 12 -40 c7 -22 13 -71 13
-110z m-2445 -93 c24 -59 49 -134 56 -167 17 -84 27 -97 22 -27 -5 77 15 148
73 248 25 44 45 85 45 92 0 6 4 12 8 12 14 0 -15 -177 -48 -295 -21 -73 -32
-132 -32 -175 1 -54 -1 -62 -11 -46 -7 10 -34 46 -60 80 -72 91 -98 140 -119
225 -21 89 -22 140 -6 213 l12 53 8 -53 c4 -29 28 -101 52 -160z m2174 -154
c0 -18 7 -71 15 -118 17 -92 11 -164 -17 -219 -29 -55 -17 -47 35 24 27 39 74
95 103 125 68 70 113 133 121 171 12 52 21 22 15 -43 -9 -79 -54 -172 -118
-240 -26 -28 -91 -79 -144 -114 -53 -35 -100 -69 -103 -74 -3 -6 -10 -10 -15
-10 -5 0 0 19 10 43 21 46 33 119 50 292 12 119 28 195 40 195 4 0 8 -15 8
-32z m-1944 -105 c8 -54 21 -151 30 -215 8 -64 22 -131 31 -148 9 -18 15 -34
12 -36 -10 -10 -198 126 -263 192 -80 80 -111 142 -120 248 l-6 61 25 -51 c14
-29 63 -92 110 -142 48 -49 100 -113 117 -141 38 -61 56 -68 29 -11 -11 22
-22 61 -26 86 -7 56 27 292 39 269 5 -7 15 -58 22 -112z m1838 -155 c-6 -18
-13 -58 -17 -88 -11 -101 -44 -187 -92 -240 -54 -60 -40 -65 25 -11 26 22 99
67 162 101 124 67 147 84 193 145 23 31 28 35 22 15 -30 -104 -150 -241 -255
-291 -30 -15 -93 -34 -140 -44 -47 -9 -97 -20 -112 -25 -27 -9 -39 2 -18 15
21 13 62 97 104 212 53 145 165 330 128 211z m-1724 -45 c31 -48 65 -119 87
-183 36 -106 83 -193 114 -209 25 -14 8 -22 -25 -11 -16 5 -69 16 -118 25 -49
9 -114 28 -145 42 -75 35 -189 150 -224 225 -15 31 -27 60 -27 63 0 4 20 -15
44 -42 33 -37 77 -66 172 -117 71 -37 144 -80 164 -95 59 -46 67 -47 26 -2
-52 59 -71 106 -96 239 -11 62 -23 119 -27 127 -12 33 7 11 55 -62z m1516
-260 c-52 -103 -89 -144 -156 -173 -57 -25 -58 -36 -2 -21 22 6 91 15 154 21
138 13 237 40 281 78 l33 27 -20 -34 c-27 -47 -88 -95 -170 -133 -62 -29 -77
-32 -154 -31 -53 1 -131 13 -210 31 l-125 29 45 13 c72 19 100 38 190 124 91
88 168 156 174 156 2 0 -15 -39 -40 -87z m-1250 -46 c120 -111 138 -123 213
-147 32 -10 51 -20 43 -23 -105 -32 -227 -52 -325 -52 -99 0 -115 3 -165 27
-64 32 -120 76 -152 120 -22 31 -16 31 32 -4 36 -25 127 -45 265 -57 66 -6
138 -13 160 -16 l40 -6 -50 21 c-65 26 -102 65 -159 169 -25 46 -46 85 -46 88
0 9 48 -30 144 -120z m581 -177 c11 0 60 3 108 6 105 7 142 -1 297 -63 100
-41 125 -47 190 -47 50 -1 89 5 119 17 24 10 45 16 48 14 7 -8 -102 -76 -146
-92 -93 -32 -225 -12 -324 50 -23 15 -67 42 -97 61 -53 33 -130 48 -130 24 0
-5 4 -10 9 -10 14 0 180 -114 219 -150 38 -36 40 -47 8 -62 -23 -10 -30 -5
-93 55 -72 70 -129 114 -181 141 -30 15 -34 15 -64 0 -49 -25 -105 -69 -183
-145 l-70 -68 -25 21 -25 20 50 45 c28 24 82 65 122 91 119 78 115 73 58 69
-42 -3 -65 -13 -129 -56 -114 -77 -177 -103 -260 -109 -81 -5 -149 16 -230 69
-55 37 -53 48 4 25 25 -10 70 -16 116 -16 69 0 90 5 213 54 165 66 163 65 281
60 52 -3 104 -4 115 -4z"/>
<path d="M1198 2420 c-74 -13 -208 -59 -268 -92 -69 -39 -190 -130 -190 -143
0 -5 21 -31 46 -56 l47 -48 60 49 c108 88 289 160 399 160 l38 0 0 70 0 70
-42 -1 c-24 -1 -64 -5 -90 -9z"/>
<path d="M1365 2418 c-4 -9 -5 -40 -3 -69 l3 -54 54 3 c35 2 59 -2 70 -11 9
-8 33 -17 53 -21 55 -10 208 -89 260 -135 l45 -40 46 47 47 48 -71 56 c-122
96 -292 166 -446 185 -42 4 -54 3 -58 -9z"/>
<path d="M1240 2245 c-113 -20 -155 -36 -245 -89 -65 -39 -125 -87 -125 -100
0 -6 19 -29 41 -52 l42 -43 46 39 c76 63 178 107 275 119 l51 6 3 68 c2 37 -1
67 -5 66 -4 -1 -42 -7 -83 -14z"/>
<path d="M1360 2191 c0 -67 -5 -63 87 -75 66 -9 148 -43 220 -92 51 -34 69
-42 79 -33 12 10 10 15 -9 33 -13 11 -27 29 -30 39 -5 13 -13 16 -26 12 -15
-4 -24 1 -34 22 -8 15 -24 37 -36 47 -22 20 -28 46 -11 46 6 0 10 4 10 9 0 13
-116 43 -187 49 l-63 4 0 -61z"/>
<path d="M666 2104 c-55 -70 -128 -215 -150 -299 -9 -33 -19 -97 -23 -142 -7
-93 0 -102 43 -56 l26 28 17 -22 c10 -11 23 -18 29 -14 6 3 20 50 31 104 22
110 80 239 136 307 19 23 35 45 35 49 0 4 -22 28 -49 55 l-49 48 -46 -58z"/>
<path d="M1915 2110 l-39 -40 32 -42 c91 -122 148 -257 160 -385 l7 -68 44 -3
c25 -2 55 -1 69 3 23 6 24 8 18 63 -11 93 -44 201 -91 298 -44 90 -130 213
-150 214 -6 0 -28 -18 -50 -40z"/>
<path d="M1280 2083 c-61 -7 -157 -43 -217 -82 -89 -58 -90 -60 -39 -110 l44
-43 24 22 c34 33 143 82 194 88 l44 5 0 63 c0 35 -3 63 -7 62 -5 0 -24 -3 -43
-5z"/>
<path d="M1362 2023 l3 -58 46 -6 c55 -8 130 -40 176 -75 l32 -24 35 37 c34
37 35 38 16 52 -11 7 -20 20 -20 27 0 20 -83 71 -146 89 -28 8 -73 15 -99 15
l-46 0 3 -57z"/>
<path d="M797 1976 c-73 -101 -136 -271 -137 -363 l0 -33 53 0 c60 0 65 7 93
120 19 75 43 126 90 193 l34 48 -42 44 c-24 25 -45 45 -48 45 -3 0 -22 -25
-43 -54z"/>
<path d="M1771 1966 c-8 -10 0 -30 38 -87 51 -78 86 -170 97 -257 l7 -53 61 3
61 3 -3 50 c-5 75 -29 162 -69 244 -28 60 -37 71 -45 58 -13 -24 -19 -22 -69
18 -48 38 -61 42 -78 21z"/>
<path d="M1267 1919 c-61 -14 -167 -75 -167 -95 0 -5 24 -15 53 -22 28 -7 53
-16 55 -20 11 -31 20 -35 52 -18 18 9 41 16 52 16 16 0 18 9 18 75 0 81 2 79
-63 64z"/>
<path d="M1366 1923 c-3 -4 -6 -37 -6 -75 0 -65 1 -68 23 -68 13 0 32 9 42 20
23 26 40 15 22 -14 -14 -21 -13 -23 15 -34 35 -13 52 -7 44 14 -9 23 14 62 40
68 13 4 24 11 24 17 0 24 -186 90 -204 72z"/>
<path d="M1683 1877 l-42 -42 21 -25 c11 -14 24 -24 29 -23 4 2 19 -11 33 -27
15 -19 34 -30 50 -30 25 0 44 -30 31 -50 -3 -5 -3 -10 2 -10 4 0 14 12 21 27
13 29 17 61 5 49 -4 -3 -22 8 -40 26 -31 30 -42 49 -25 47 27 -5 34 3 13 14
-14 6 -26 18 -29 26 -3 8 0 11 7 7 20 -13 12 10 -12 32 l-23 22 -41 -43z"/>
<path d="M923 1868 c-52 -74 -98 -198 -74 -198 7 0 16 -11 21 -25 11 -29 40
-34 40 -7 0 10 14 31 31 48 28 26 99 127 99 140 0 6 -77 84 -83 84 -2 0 -17
-19 -34 -42z"/>
<path d="M1330 1716 c0 -24 -41 -76 -60 -76 -7 0 -8 -6 -2 -17 25 -54 -16
-134 -63 -125 -33 6 -31 -6 6 -51 35 -43 85 -67 139 -67 36 0 38 2 44 39 5 33
10 39 37 45 50 10 61 24 38 47 -10 10 -34 25 -51 32 -33 13 -33 14 -10 26 22
12 32 61 12 61 -6 0 -16 11 -22 25 -6 14 -17 24 -24 21 -18 -7 -37 20 -31 44
3 11 1 20 -4 20 -5 0 -9 -11 -9 -24z"/>
<path d="M494 1476 c3 -35 10 -77 15 -93 5 -15 14 -48 22 -73 32 -115 160
-330 196 -330 5 0 27 18 48 40 29 30 37 44 30 54 -59 81 -78 111 -105 164 -17
33 -37 83 -46 109 -15 51 -54 103 -77 103 -7 0 -18 12 -24 28 l-10 27 -16 -35
-16 -35 -2 30 c-2 17 -2 40 -1 53 0 12 -4 22 -10 22 -7 0 -9 -21 -4 -64z"/>
<path d="M918 1523 c-5 -30 11 -226 22 -265 6 -21 15 -38 21 -38 5 0 28 16 49
36 l39 37 -28 41 c-37 54 -58 104 -66 161 -7 45 -30 63 -37 28z"/>
<path d="M986 1513 c19 -87 65 -183 87 -183 6 0 32 20 58 46 l46 45 -23 47
c-35 70 -38 72 -110 72 l-64 0 6 -27z"/>
<path d="M1807 1524 c3 -9 13 -14 24 -11 11 3 19 0 19 -7 0 -18 -30 -56 -44
-56 -7 0 -23 -14 -35 -31 -17 -23 -22 -39 -17 -61 10 -49 -11 -107 -41 -119
-17 -6 -23 -13 -17 -19 18 -18 62 14 95 69 37 61 67 141 76 206 l6 45 -36 0
c-29 0 -35 -3 -30 -16z"/>
<path d="M1897 1460 c-8 -44 -31 -113 -51 -153 -20 -39 -42 -93 -49 -118 -13
-43 -13 -46 7 -55 12 -5 21 -17 21 -26 0 -25 13 -32 30 -18 9 7 15 25 14 39
-6 67 30 122 45 69 5 -21 8 -19 32 22 33 58 71 167 79 227 3 27 8 58 11 71 4
21 1 22 -59 22 l-64 0 -16 -80z"/>
<path d="M2070 1497 c0 -102 -64 -268 -146 -376 l-55 -74 49 -50 50 -50 26 29
c115 129 195 313 212 492 l7 72 -72 0 -71 0 0 -43z"/>
<path d="M1144 1348 l-49 -49 35 -29 c19 -16 59 -39 89 -50 46 -18 57 -19 82
-8 16 7 29 16 29 20 0 18 -14 38 -26 38 -20 0 -17 13 6 28 23 14 27 42 6 42
-8 0 -38 13 -68 28 l-54 29 -50 -49z"/>
<path d="M1028 1231 c-21 -20 -38 -41 -38 -47 0 -13 69 -63 127 -93 42 -21 75
-27 71 -13 -6 21 16 53 40 58 45 10 52 13 52 24 0 5 -7 10 -16 10 -26 0 -117
42 -155 72 -20 15 -38 28 -40 27 -2 0 -21 -17 -41 -38z"/>
<path d="M902 1103 c-31 -35 -31 -37 -15 -55 57 -63 226 -147 337 -167 108
-20 106 -21 106 54 0 65 0 65 -28 65 -53 0 -174 38 -230 73 -68 41 -118 67
-129 66 -4 0 -23 -16 -41 -36z"/>
<path d="M791 988 l-41 -43 32 -28 c133 -115 323 -201 475 -214 l73 -6 0 65 0
66 -56 7 c-137 17 -272 72 -367 149 -31 25 -61 46 -66 46 -5 0 -28 -19 -50
-42z"/>
<path d="M1815 1002 c-11 -9 -31 -33 -44 -53 -31 -46 -118 -94 -154 -85 -14 3
-64 -3 -112 -14 -47 -11 -99 -20 -115 -20 l-30 0 0 -64 c0 -36 4 -67 8 -70 14
-8 165 14 237 35 38 12 101 37 139 56 72 36 195 122 196 136 0 9 -89 97 -98
97 -4 -1 -16 -8 -27 -18z"/>
<path d="M1367 993 c-4 -3 -7 -33 -7 -66 l0 -59 58 6 c31 3 71 10 87 15 24 7
27 10 13 16 -14 5 -15 11 -8 25 14 26 14 26 -20 40 -16 7 -30 16 -30 21 0 10
-83 12 -93 2z"/>
</g>
</svg>
